<?xml version="1.0" ?><svg fill="none" height="12" viewBox="0 0 17 17" width="12" xmlns="http://www.w3.org/2000/svg"><path d="M16.5183 2.73961H15.8853C15.6503 2.73961 15.3183 3.08761 15.3183 3.30961V11.3806C15.3183 11.6036 15.6503 11.9076 15.8853 11.9076H16.5183V13.8236H10.7853V11.9076H11.9853V3.42361H11.9253L9.12531 13.8236H6.95531L4.18831 3.42361H4.11831V11.9076H5.31831V13.8236H0.518311V11.9076H1.13331C1.38631 11.9076 1.71831 11.6036 1.71831 11.3806V3.31061C1.71831 3.08761 1.38631 2.73961 1.13331 2.73961H0.518311V0.823608H6.52031L8.49031 8.34961H8.54531L10.5343 0.823608H16.5183V2.73961Z" fill="white"/></svg>